<svg version="1.2" xmlns="http://www.w3.org/2000/svg" viewBox="0 0 2503 2503" width="2483" height="2483"><style></style><path fill-rule="evenodd" d="m438.9 904.2q-0.2 0.3-0.3 0.6-0.2 0.3-0.3 0.6-0.1 0.3-0.3 0.7-0.1 0.3-0.2 0.6c-29.5 55.6-87.3 93.5-153.3 93.5-95.7 0-174.2-80.2-174.2-179.1 0-98.5 78.5-179.2 174.2-179.2 66.3 0 124.4 38.7 153.6 95.2 0.8 1.1 1.1 1.6 1.9 3.3 0.2 0.2-55.7 40.6-56.2 39.8-0.3-1.1-0.5-1.9-1.1-2.5-16.1-40.1-54.3-66.8-98.2-66-58.6 0.6-106.9 49.1-106.9 109.4 0 60.8 48.3 109.9 106.9 109.9 42.6 0 79.7-26.2 96.6-63.3 0.8-1.4 1.1-2.4 1.6-3.5zm72.3-259.1h67.1v125.2h176.1v-125.2h67.6v348.2h-67.6v-152.9h-176.1v152.9h-67.1zm1257.6 348.3v-348.3h243.5v70.4h-175.6v69.5h162.3v69.6h-162.3v69.5h200.4v69.3zm363.5 0v-348.3h68.2v279h189.2v69.3zm-729.4 0h-68.2v-348.3h94.6l149.2 209.5v-209.5h67.6v348.3h-54l-189.2-262.6zm-414.8-69.3l-31 69.2h-80.8l154.4-348.2h94.3l155.5 348.2h-80.8l-31.3-69.2zm90-208.6l-59.5 139.1h121.7zm77.3 1015.7q-11 6.3-22.7 11.1-11.7 4.8-23.9 8.1-12.2 3.2-24.8 4.9-12.5 1.6-25.2 1.6c-72.5 0-136-39.6-170.4-98.2 0-0.3-0.3-0.3-0.3-0.6 0-0.2-0.3-0.2-0.3-0.5l27.9-14.4 27.8-14.2q0.1 0.1 0.2 0.2 0.1 0.1 0.2 0.3 0.1 0.1 0.2 0.3 0.1 0.1 0.2 0.3c6 9.7 13.2 18.6 21.4 26.6 8.3 7.9 17.5 14.7 27.5 20.3 10 5.6 20.6 9.9 31.7 12.8 11.1 2.9 22.5 4.3 33.9 4.3 15.6 0 30.6-2.7 43.9-7.1-7.6-8.7-14.4-18.1-20.4-28.1-5.9-10-11-20.5-15-31.3-4.1-10.9-7.2-22.1-9.2-33.6-2.1-11.4-3.1-23-3.1-34.6 0-48.5 17.7-93.2 47.2-127.6q-5.3-1.8-10.6-3.1-5.4-1.4-10.8-2.3-5.5-0.8-11-1.3-5.5-0.4-11-0.4c-47.7 0-91.9 25.6-116.1 66.8-0.3 0.3-0.3 0.6-0.3 0.8l-55.9-28.9c0.3-0.5 0.5-1.1 0.8-1.3 34.1-59.8 98.4-99.8 171.5-99.8 35.5 0 68.8 9.5 96.6 25.9 27.8-16.4 61-25.9 96.5-25.9 73.1 0 137.4 40.1 171.5 99.8 0.3 0.2 0.6 0.8 0.8 1.3l-55.9 28.9c0-0.2 0-0.5-0.2-0.8-24.3-41.2-68.5-66.8-116.2-66.8-15.3 0-30 2.5-43.4 7.1 7.6 8.8 14.3 18.2 20.2 28.2 5.9 10 10.8 20.5 14.9 31.4 4 10.8 7 22.1 9.1 33.5 2 11.4 3 22.9 3 34.5 0 48.8-18 93.6-47.7 127.6 13.3 4.4 28.3 7.1 43.9 7.1 48.2 0 90.8-25.6 114.5-64 0.3-0.6 0.6-0.8 0.8-1.1l27.8 14.2 27.8 14.4c0 0.3-0.2 0.3-0.2 0.5 0 0.3-0.3 0.3-0.3 0.6-34.3 58.6-97.9 98.2-170.4 98.2-35.5 0-68.7-9.6-96.5-25.7zm37.6-171.8c0-8.5-0.8-17-2.4-25.4-1.6-8.4-4.1-16.6-7.3-24.5-3.2-7.9-7.2-15.5-11.9-22.6-4.7-7.2-10.1-13.8-16-19.9-23.8 24.3-37.7 56.7-37.7 92.4 0 36.3 14.8 69.3 37.7 93.6 22.9-24.3 37.6-57.3 37.6-93.6z"/><path fill-rule="evenodd" d="m1155.4 1178.5c209.8 0 381.1 171.3 381.1 381 0 210-171.3 381.2-381.1 381.2-209.9-0.3-381.1-171.2-381.1-381.2 0-209.4 171.2-380.7 381.1-381zm-368.3 381c0 202.9 165.3 368.1 368.3 368.4 202.7 0 368.2-165.5 368.2-368.4 0-202.6-165.5-368.1-368.2-368.1-203 0.2-368.3 165.5-368.3 368.1z"/></svg>