<svg version="1.2" xmlns="http://www.w3.org/2000/svg" viewBox="0 0 3163 991" width="3163" height="991"><style></style><path fill-rule="evenodd" d="m472.8 81.1c20.8-0.1 34.5 0.4 43.9 1.4 7.6 0.8 18.8 2.4 24.8 3.6 6 1.1 17.3 3.6 25 5.5 7.7 1.9 20.5 5.7 28.5 8.4 8 2.6 19.5 6.9 25.5 9.5 6 2.6 15.7 7.2 21.5 10.2 5.8 3.1 14.1 7.9 18.5 10.6 4.4 2.8 12.3 8.2 17.5 12 5.2 3.8 11.5 7.9 14 9.2 2.5 1.2 8.5 3.7 13.5 5.5 5 1.8 13.5 5.4 19 8.1 5.5 2.6 13.8 7.2 18.5 10.1 4.7 2.9 12.5 8.4 17.5 12.1 5 3.8 13.7 11.1 19.5 16.2 5.8 5.2 14.5 14 19.5 19.6 5 5.5 13.5 16.1 19 23.4 5.5 7.3 14.3 20.4 19.5 29.1 5.2 8.8 12.8 23.1 16.9 31.9 4 8.8 9.3 21.2 11.7 27.5 2.3 6.3 6.1 17.8 8.4 25.5 2.2 7.7 5.4 20.3 6.9 28 1.6 7.7 3.7 19.9 4.7 27 1.1 8.8 1.7 20.4 1.8 36 0.1 13.9-0.5 28.1-1.3 36-1.2 10.4-1.2 14.3-0.3 19.5 0.7 3.6 1.9 10.3 2.8 15 1.2 5.9 1.7 14.4 1.8 27.5 0 10.5-0.5 23-1.2 28-0.7 5-2.2 13.7-3.3 19.5-1.2 5.8-3.9 16.6-6.1 24-2.2 7.4-5.9 18.5-8.2 24.5-2.4 6-6.6 16-9.3 22-2.8 6-8.3 16.9-12.3 24-4 7.1-10.9 18.4-15.4 25-4.4 6.6-12.5 17.6-18 24.5-5.5 6.9-17.6 20.2-27 29.5-9.4 9.4-21.4 20.5-26.6 24.6-5.2 4.2-14.5 11-20.5 15.1-6 4.1-14.8 9.8-19.5 12.6-4.7 2.8-13.2 7.3-19 10-5.8 2.7-13.9 6.5-18 8.4-4.1 2-10.6 6.2-14.4 9.4-3.7 3.3-10.8 8.8-15.7 12.4-4.8 3.6-13.7 9.2-19.6 12.5-5.9 3.3-14.8 7.7-19.8 9.9-5 2.1-16.2 6.2-25 9.1-8.8 3-21.9 6.5-29 7.9-7.1 1.4-19.3 3.5-27 4.6-11.2 1.6-19.3 2-41 2-14.9 0-31.1-0.5-36-1.1-4.9-0.6-16-2.2-24.5-3.6-8.5-1.4-20.7-3.8-27-5.4-6.3-1.6-18.7-5.4-27.5-8.3-8.8-2.9-22.8-8.3-31-12-8.3-3.6-19.9-9.4-26-12.8-6.1-3.3-15.3-9-20.5-12.6-5.2-3.6-12.2-8.4-15.5-10.7-3.3-2.3-9.8-5.6-14.5-7.3-4.7-1.8-12.6-4.9-17.5-7-4.9-2-14.4-6.9-21-10.8-6.6-3.9-16.3-10.4-21.5-14.3-5.2-3.9-14.6-11.8-20.9-17.4-6.2-5.6-15.2-14.6-20-20.1-4.7-5.4-11.9-14.1-15.9-19.5-4.1-5.3-9.9-13.4-13-18.1-3-4.7-7.8-12.3-10.6-17-2.7-4.7-8.7-16.1-13.2-25.5-4.5-9.4-10.5-23.1-13.3-30.5-2.7-7.4-6.5-18.9-8.4-25.5-1.9-6.6-4.7-17.4-6.2-24-1.5-6.6-3.6-17.9-4.7-25-1.2-8.1-2.2-21-2.5-34-0.4-13.3-0.1-27.8 0.7-39.5 1.1-14.5 1.1-20 0.1-25.5-0.6-3.9-1.8-10.6-2.6-15-0.9-5.1-1.5-14.7-1.5-26.5 0-13.6 0.5-22.2 2-32.5 1.2-7.7 3.6-20.3 5.5-28 1.9-7.7 5.1-18.7 7.1-24.5 2-5.8 5.8-15.7 8.6-22 2.7-6.3 8.3-18 12.5-26 4.1-8 11.7-20.8 16.7-28.5 5.1-7.7 12.5-18.3 16.5-23.5 4-5.2 11-13.8 15.6-19 4.5-5.2 13.6-14.7 20.1-21 6.6-6.4 17.3-15.9 23.9-21.2 6.6-5.2 18.3-13.7 26-18.8 8.2-5.4 23-13.7 36-20.1 18.1-8.9 23.7-12.2 31.5-18.5 5.2-4.3 14.2-10.8 20-14.7 5.8-3.8 16.8-10 24.5-13.7 7.7-3.7 19.4-8.6 26-10.9 6.6-2.2 17.4-5.4 24-7.1 6.6-1.6 17.9-3.9 25-5.1 7.1-1.1 14.6-2.4 16.5-2.9 1.9-0.4 17.1-0.8 33.7-0.9zm-51.2 15.9c-6.6 1.2-18.1 3.8-25.5 5.7-7.4 1.9-18.7 5.5-25 8-6.3 2.5-16.9 7.3-23.5 10.6-6.6 3.4-15 8.2-18.8 10.7-3.7 2.5-6.7 4.8-6.7 5.3 0 0.4 1 0.4 2.2 0.1 1.3-0.3 12.2-0.8 24.3-1.1 19.9-0.4 23-0.3 32.5 1.7 5.8 1.2 15 3.9 20.5 6 5.5 2.2 13.5 6.1 17.7 8.7 4.3 2.7 11 7.5 14.9 10.8 3.9 3.3 10.2 9.8 14 14.5 3.8 4.7 9.5 13.6 12.8 20 3.3 6.3 7.6 16.2 9.6 22 2 5.8 4.3 14.8 5 20 0.8 5.2 1.7 16.3 2.1 24.5 0.4 8.7 0.2 20.5-0.5 28-0.6 7.1-2.5 19.5-4.1 27.5-1.6 8-4.4 19.2-6.1 25-1.7 5.8-6 18.4-9.6 28-3.5 9.6-6 17.8-5.6 18.2 0.4 0.4 6.2 1.6 12.8 2.7 6.6 1.1 20.8 2.9 31.5 4 10.7 1.1 25.2 2.3 32.3 2.8l12.7 0.8c0-4.6-1.1-10.9-2.4-17-1.4-6-3.2-16.6-4.1-23.5-1-6.9-1.9-23.1-2.2-36-0.4-14.6-0.1-28 0.6-35.5 0.7-6.6 2.1-16.5 3.2-22 1.2-5.5 4.1-16.1 6.5-23.5 2.5-7.4 6.7-18.2 9.5-24 2.8-5.8 7.1-13.4 9.7-17 2.6-3.6 10.1-12.1 16.7-18.9 6.6-6.7 15.1-14.4 19-17 3.9-2.6 10.6-6.2 15-8 4.4-1.9 10.9-4.2 14.5-5.3 3.6-1 10.8-2.5 16-3.3 5.2-0.8 12.6-1.5 16.5-1.5 6.5-0.1 6.9-0.2 5-1.6-1.1-0.8-7-4.6-13-8.4-6-3.8-16.6-9.5-23.5-12.8-6.9-3.2-17.9-8-24.5-10.5-6.6-2.5-19-6.6-27.5-9-8.5-2.5-21.1-5.7-28-7.1-6.9-1.4-17.2-3.3-23-4.1-7.3-1.1-20.5-1.7-43.5-2-18.1-0.2-36.4 0-40.5 0.5-4.1 0.4-12.9 1.8-19.5 3zm-106.5 55.6c-5.8 1.4-12.1 3.3-14 4.2-2 1-5.6 4.7-8.9 9.2-3 4.1-7.2 10.7-9.2 14.5-2.1 3.9-4.9 9.9-6.3 13.5-1.3 3.6-3.2 9.7-4.1 13.5-0.9 3.9-1.9 11.5-2.2 17-0.4 7.2-0.1 12.9 1.2 20.5 0.9 5.8 3.1 14.3 4.7 19 1.6 4.7 5 12.3 7.4 17 2.5 4.7 7.5 12.8 11.2 18 3.7 5.2 11.4 14.2 17.2 20 5.8 5.8 14.3 13.6 19 17.3 4.7 3.8 12.8 9.7 18 13.2 5.2 3.5 15.1 9.3 22 12.8 6.9 3.5 20.6 9.5 30.5 13.4 9.9 3.9 21.4 8.1 25.5 9.4 4.1 1.2 8.3 1.9 9.2 1.6 1-0.4 4-5.3 6.7-10.9 2.8-5.7 7-16.4 9.4-23.8 2.5-7.4 5.7-18.7 7.1-25 1.4-6.3 3.3-16.4 4.3-22.5 1.2-8 1.7-17.1 1.8-33 0-17.5-0.4-23.7-1.8-30-0.9-4.4-2.9-11.8-4.3-16.5-1.4-4.7-4.5-12.3-6.8-17-2.3-4.7-6.2-11.4-8.6-15-2.5-3.6-7.6-9.8-11.5-13.9-3.8-4-9.7-9.4-13-11.8-3.3-2.5-9.5-6.3-13.8-8.4-4.2-2.2-11.4-5-16-6.3-4.5-1.3-12.3-2.9-17.2-3.5-4.9-0.6-13.5-1-19-1-5.5 0.1-14.1 0.6-19 1.1-4.9 0.5-13.7 2-19.5 3.4zm315.5 12.5c-4.4 1.1-11.6 3.8-16 6-4.4 2.2-11.3 6.6-15.4 9.7-4.1 3.1-10.8 9.3-14.9 13.7-4 4.4-9.8 11.6-12.7 16-3 4.4-7.4 12.3-9.8 17.5-2.5 5.2-6.1 14.5-8 20.5-1.9 6.1-4.4 15.7-5.5 21.5-1.1 5.8-2.6 15-3.3 20.5-0.6 5.5-1.2 18.8-1.2 29.5 0.1 10.7 0.6 24.2 1.2 30 0.7 5.8 1.8 14.3 2.7 19 0.8 4.7 2.6 13.6 3.9 19.8 2.4 10.6 2.6 11.2 4.7 10.7 1.3-0.2 7-1 12.8-1.6 5.8-0.6 14.1-1.7 18.5-2.5 4.4-0.9 13.2-2.8 19.5-4.4 6.3-1.5 17.4-4.9 24.5-7.5 7.1-2.6 18.4-7.4 25-10.7 6.6-3.3 16.3-8.8 21.5-12.3 5.2-3.4 13.5-9.8 18.5-14.1 4.9-4.4 11.1-10.6 13.8-13.9 2.8-3.3 6.7-8.5 8.7-11.5 2.1-3 5.2-8.4 7-12 1.8-3.6 4.4-9.6 5.7-13.5 1.3-3.9 3-10.8 3.8-15.5 0.9-4.7 1.5-12.1 1.5-16.5 0-4.4-0.7-12-1.5-17-0.8-4.9-2.6-12.6-4.1-17-1.5-4.4-4.2-11.1-6.2-15-1.9-3.8-5-9.5-7-12.5-1.9-3-6.8-9.5-10.7-14.5-4-4.9-10.1-11.9-13.6-15.4-3.5-3.5-8-7.1-9.9-7.9-2.7-1.2-8-1.6-22-1.8-10.2-0.1-19.6 0-21 0.2-1.4 0.3-6.1 1.4-10.5 2.5zm-392.5 22.5c-5.2 3.5-14.4 10.3-20.5 15.1-6.1 4.8-18.2 15.9-27.1 24.8-8.8 8.8-19.6 20.5-24 26-4.4 5.5-10.3 13.1-13.1 17-2.8 3.9-8 11.5-11.6 17-3.6 5.5-9.5 15.4-13.1 22-3.6 6.6-9.2 18.1-12.4 25.5-3.3 7.4-7.7 19.1-10 26-2.2 6.9-5 16.1-6.1 20.5-1.1 4.4-3 13.4-4.2 20-1.4 8-2.3 18.3-2.6 31-0.3 10.5-0.3 20.7 0.1 22.8 0.3 2 0.9 3.7 1.3 3.7 0.5 0 2.1-3.5 3.7-7.7 1.6-4.3 4.1-10.3 5.6-13.3 1.5-3 6.1-10.4 10.1-16.5 4.6-6.9 10.9-14.6 16.9-20.5 5.2-5.2 12.7-11.6 16.5-14.1 3.8-2.6 9.7-6 13-7.6 3.3-1.7 8.9-4 12.5-5.1 3.6-1.2 10.6-2.9 15.5-3.8q9-1.7 24-1.7c9.4 0 18.6 0.6 24.5 1.7 5.2 0.9 13.1 2.8 17.5 4.1 4.4 1.4 14.1 5.5 21.5 9.1 7.4 3.6 17.3 9.1 22 12.1 4.7 3.1 11.9 8.2 16 11.3 4.1 3.1 12 9.8 17.5 14.7 5.5 4.9 14.5 13.9 19.9 19.9 5.4 6 13.1 15.2 17.1 20.4 4 5.2 7.9 10.1 8.8 10.8 1.5 1 2.7 0 9.1-7.5 4-4.9 11.5-14.4 16.7-21.3 5.2-6.9 12.4-17.2 16-23 3.6-5.8 7.8-13 9.3-16 1.5-3 2.4-5.8 1.9-6.1-0.4-0.3-8.4-3.2-17.8-6.4-9.4-3.1-21.5-7.7-27-10.2-5.5-2.4-14.7-6.9-20.5-9.9-5.8-3.1-16.4-9.4-23.5-14.2-7.1-4.7-18.2-13-24.5-18.3-6.3-5.3-14.8-13.4-18.9-18-4.1-4.6-9.8-11.5-12.7-15.4-2.9-3.9-8-11.9-11.3-18-3.4-6-7.5-14.8-9.2-19.5-1.7-4.7-3.8-12.1-4.6-16.5-1.1-6.1-1.4-12.6-1.1-27 0.4-14.8 1-20.7 2.5-26.5 1.1-4.1 4.6-12.9 7.7-19.5 3.1-6.6 5.6-12.1 5.6-12.2 0-0.2-0.6-0.3-1.3-0.3-0.6 0-6.8 3.2-13.7 7.1-6.9 3.9-16.8 10-22 13.5zm483-2.6c3.8 5.2 9.1 13.6 11.8 18.5 2.7 5 6.3 12.6 8 17 1.7 4.4 3.9 11.4 5 15.5 1.1 4.1 2.5 11.8 3.2 17 0.8 6.9 0.8 12.1 0.1 19-0.6 5.2-2 13.1-3.1 17.5-1.1 4.4-3.6 11.8-5.6 16.5-1.9 4.7-5.2 11.4-7.3 15-2.1 3.6-6.5 10.1-9.8 14.5-3.3 4.4-10.2 12-15.4 16.9-5.2 4.9-14.8 12.4-21.4 16.8-6.6 4.4-17.9 10.8-25 14.3-7.1 3.5-17.3 8-22.5 10-5.2 2-14.7 5.2-21 7-6.3 1.8-16.5 4.3-22.5 5.4-6 1.1-16.4 2.8-23 3.6-6.6 0.9-12.3 1.9-12.7 2.3-0.4 0.4-0.1 3.4 0.8 6.7 0.8 3.3 3.7 11.6 6.4 18.5 2.7 6.9 9.4 21.5 14.9 32.5 5.5 11 10.6 20.8 11.3 21.7 0.7 1 2.2 1.7 3.3 1.8 1.1 0 6.2-3.6 11.5-8.1 5.2-4.5 14-11.6 19.5-15.8 5.5-4.3 12.7-9.6 16-11.8 3.3-2.2 11.2-7.1 17.5-10.8 6.3-3.8 16-9 21.5-11.6 5.5-2.6 15.7-6.8 22.7-9.3 7.1-2.5 18.3-5.8 25-7.2 9.9-2.1 16.1-2.7 31.3-3.1 15.1-0.4 21.3-0.2 30 1.2 6 0.9 14.3 2.8 18.2 4.1 4 1.3 10.1 3.8 13.5 5.5 3.5 1.7 9.4 5.2 13.3 7.8 3.8 2.5 11.5 9.1 17 14.6 5.6 5.5 12.8 14 16 18.8l6 8.9c1.3-5.2 1.5-15.9 1.2-27.2-0.3-11.3-1.3-25.9-2.2-32.5-0.8-6.6-2.5-16.7-3.6-22.5-1.1-5.8-3.3-15.4-4.9-21.5-1.6-6-5-17.1-7.6-24.5-2.6-7.4-7.1-19.1-10.1-26-3-6.9-8.3-17.9-11.8-24.5-3.5-6.6-9.8-17.4-14-24-4.2-6.6-11.5-16.9-16-23-4.6-6-12.1-15.1-16.7-20.1-4.6-5-11.9-12.4-16.3-16.5-4.4-4.1-11.4-10.1-15.5-13.5-4.1-3.3-10.9-8.3-15-11.1-4.1-2.8-11.8-7.3-17-10.2-5.2-2.8-10.1-5.1-10.8-5.1-0.6 0-1.2 0.3-1.2 0.8 0 0.4 3.1 5 7 10.2zm-535 198c-4.1 1-11.3 3.5-16 5.5-4.7 2-11.4 5.6-15 8-3.6 2.4-10.6 8.5-15.5 13.7-5 5.1-11.5 12.7-14.4 16.8-2.9 4.1-7.3 11.6-9.8 16.5-2.5 5-5.8 12.4-7.3 16.5-1.5 4.1-4 11.8-5.5 17l-2.8 9.5c3.5 10.1 6.2 16.1 8.2 20 2 3.8 5.7 9.9 8.4 13.5 2.6 3.6 8 9.8 12 13.9 3.9 4 9.9 9.2 13.2 11.4 3.3 2.3 9.6 5.8 14 7.8 4.4 2.1 11.6 4.7 16 5.8 4.4 1.2 11.4 2.5 15.5 3.1 4.1 0.5 12.4 0.9 18.5 0.9 6.1 0.1 15.7-0.6 21.5-1.3 5.8-0.8 15-2.6 20.5-4 5.5-1.3 14.5-4.1 20-6.1 5.5-2 13.8-5.4 18.5-7.6 4.7-2.2 13.7-7.1 20-10.9 6.3-3.7 15.8-9.8 21-13.6 5.2-3.7 13.1-9.7 17.5-13.2 4.4-3.6 11.5-9.9 15.8-14.1 4.2-4.2 7.7-8.4 7.7-9.3 0-1-3-5.7-6.7-10.5-3.6-4.9-10.8-13.5-15.9-19.3-5.1-5.8-12.1-13.3-15.6-16.6-3.4-3.4-10.1-9.4-14.8-13.4-4.7-3.9-13-10.2-18.5-13.9-5.5-3.7-13.4-8.6-17.5-10.8-4.1-2.3-11.8-5.8-17-7.8-5.2-2.1-14.7-5.1-21-6.7-9.7-2.5-13.9-3-26.5-3.3-8.3-0.2-16.3-0.1-18 0.1-1.7 0.3-6.4 1.4-10.5 2.4zm250.5 32.5c-2.7 4.4-8 12.7-11.9 18.5-3.8 5.8-10.6 15.2-15 21-4.3 5.8-11.4 14.7-15.8 19.8-7.7 9.1-7.8 9.2-6.6 12.5 0.7 1.7 3.2 6.8 5.7 11.2 2.4 4.4 7.2 13.6 10.6 20.5 3.5 6.9 8.7 18.8 11.8 26.5 3 7.7 6.9 18 8.6 23l3.2 9c14.3-0.6 24.9-0.2 32.9 0.4 8 0.6 21.7 2 30.5 3.1 8.8 1.1 20.5 2.9 26 4 5.5 1.1 10.6 2 11.2 2 0.7 0 3.1-3.5 5.4-7.7 2.3-4.3 7.9-13.7 12.6-20.8 4.7-7.1 11.5-16.8 15.1-21.5 3.6-4.7 10.7-13.5 15.7-19.5 5-6 9.4-11.6 9.8-12.2 0.4-0.8-1.8-5.5-5-11-3.1-5.4-8.2-15-11.4-21.3-3.1-6.3-7.6-16-10-21.5-2.3-5.5-6.6-16.5-9.4-24.5l-5.1-14.5c-34-1-50.2-2-57.9-3-7.7-0.9-19.6-2.7-26.5-4.1-6.9-1.3-13.5-2.4-14.7-2.4-1.3 0-2.9 1-3.6 2.3-0.8 1.2-3.6 5.8-6.2 10.2zm290 16.1c-5.5 1.4-14.3 4.1-19.5 6-5.2 2-16.7 7.1-25.5 11.4-8.8 4.3-20.7 11-26.5 14.8-5.8 3.8-15.6 10.9-21.9 15.8-6.3 4.9-15.5 12.8-20.5 17.5-8.5 8-9 8.8-8 11 0.6 1.3 5.1 7.5 10 13.8 4.9 6.3 13.6 16.4 19.4 22.5 5.8 6 15.5 15.2 21.5 20.4 6 5.2 15.5 12.4 21 16.1 5.5 3.7 15 9.2 21 12.3 6 3.1 16.4 7.5 23 9.7 6.6 2.2 14.9 4.5 18.5 5 3.6 0.6 14.1 1.1 23.5 1.1 12 0 18.8-0.4 23-1.5 3.3-0.8 9.4-3 13.5-4.7 4.1-1.8 10.4-4.9 14-7.1 3.6-2.1 9.4-6.3 13-9.2 3.6-2.9 8.8-7.9 11.6-11.1 2.8-3.3 7.1-8.8 9.6-12.4 2.5-3.6 6.1-9.4 8.1-13 1.9-3.6 5.2-10.5 7.2-15.5 2-5 5.1-14.2 7-20.5l3.4-11.5c-4.7-11.6-7.2-17.2-8.6-20-1.4-2.7-4.4-7.7-6.6-11-2.2-3.3-7.2-9.3-11.1-13.4-3.9-4-9.8-9.3-13.1-11.6-3.3-2.4-9.4-6.1-13.5-8.2-4.1-2.1-11.3-5.1-16-6.5-4.7-1.5-12-3.2-16.3-3.8-4.2-0.5-14.8-0.9-23.5-0.9-8.6 0.1-18.4 0.5-21.7 1-3.3 0.5-10.5 2-16 3.5zm-363 73.9c-3.9 3.4-11.5 9.7-17 14-5.5 4.3-14.9 11.1-21 15.1-6.1 4-16.2 10-22.5 13.4-6.3 3.3-16.7 8.3-23 11-6.3 2.7-16.4 6.5-22.5 8.5-6.1 1.9-14.8 4.3-19.5 5.2-6.5 1.2-14.7 1.6-34.5 1.7l-26 0.1c-14.7-5.1-23.5-8.8-29-11.4-5.6-2.7-13.3-7.4-17.5-10.8-4.1-3.3-10.9-9.6-15-14-4.1-4.3-10.2-11.9-13.5-16.7l-6-8.8c-0.5 39.4-0.1 49.3 1 58.7 0.9 7.1 2.8 18.4 4.1 25 1.4 6.6 4.1 17.4 5.9 24 1.9 6.6 4.7 15.8 6.3 20.5 1.6 4.7 5 13.7 7.6 20 2.6 6.3 8.7 19.1 13.4 28.5 4.8 9.4 13 23.5 18.3 31.5 5.3 8 13.3 19.2 17.9 25 4.6 5.8 14.5 16.6 22 24 7.4 7.4 18 16.9 23.5 21.1 5.5 4.2 14.1 10.1 19 13.1 4.9 3.1 11.8 6.9 15.2 8.7 3.5 1.7 6.8 3 7.4 2.9 0.6-0.2-2.6-5.5-7.1-11.8-4.5-6.3-9.7-14.2-11.5-17.5-1.8-3.3-4.9-9.8-6.8-14.5-2-4.7-4.6-11.6-5.9-15.5-2.1-6.5-2.3-8.5-2.3-29.5 0.1-21.7 0.2-22.8 2.9-31.5 1.5-5 4.3-12.4 6.2-16.5 1.9-4.1 4.9-9.7 6.6-12.5 1.8-2.7 6-8.6 9.3-13 3.4-4.4 10.2-11.7 15.1-16.3 4.9-4.6 12.8-11.1 17.7-14.5 4.8-3.4 13.6-8.9 19.5-12.1 5.9-3.2 16.1-8.1 22.7-10.8 6.6-2.7 17.2-6.4 23.5-8.3 6.3-1.8 14.4-4.1 18-5 3.6-0.9 15.7-3.2 27-5.1 11.3-1.9 20.6-3.5 20.8-3.7 0.1-0.1-1.4-4.9-3.4-10.7-2-5.8-5.6-15.7-8.1-22-2.5-6.3-6.6-15.5-9.1-20.5-2.4-5-6.6-12.8-9.3-17.5-2.6-4.7-5.4-9.3-6.1-10.3-1.2-1.7-1.4-1.7-4.3 0.4-1.6 1.3-6.1 5-10 8.4zm216.1 27c-4 5-10.1 13-13.7 18-3.6 5-9.3 13-12.6 18-3.3 5-7.4 11.5-9.2 14.5-3 5.2-3 5.6-1.4 7.1 1 0.9 6.3 3.1 11.8 4.9 5.5 1.7 14.7 5.1 20.5 7.5 5.8 2.4 15.5 6.7 21.5 9.6 6 2.8 15.7 7.9 21.5 11.2 5.8 3.3 13.9 8.3 18 11 4.1 2.8 10.9 7.8 15 11.3 4.1 3.4 11.6 10.4 16.6 15.6 5 5.1 11.3 12 14 15.3 2.7 3.3 7.6 10 10.9 15 3.2 5 8 13.5 10.7 19 2.6 5.5 5.9 14.5 7.4 20 2.4 9.2 2.7 11.7 2.8 30.5l0.1 20.5c-6 17.8-9.5 26.8-11.7 31.5-2.1 4.7-3.8 8.8-3.8 9.3 0 0.4 0.3 0.7 0.7 0.7 0.5 0 5.8-2.7 11.8-6.1 6-3.4 15.7-9.3 21.5-13.2 5.8-3.8 13.6-9.5 17.5-12.5 3.9-3.1 12-9.9 18-15.3 6-5.3 15.5-14.6 21-20.5 5.6-6 13.3-14.7 17.2-19.4 3.9-4.7 10.8-13.7 15.4-20 4.7-6.3 11.6-16.7 15.4-23 3.8-6.3 10.1-18.2 14.1-26.5 4-8.2 9-20 11.3-26 2.2-6 5.7-16.6 7.6-23.5 2-6.9 4.5-17 5.6-22.5 1.2-5.5 2.7-15.2 3.5-21.5 0.7-6.3 1.4-14.9 1.4-19 0-4.1-0.3-11-0.7-15.3-0.5-4.2-1.1-7.7-1.6-7.7-0.4 0-1.7 2.6-2.8 5.8-1.2 3.1-4.8 10.9-8.1 17.2-3.2 6.3-8.2 14.6-11.1 18.5-2.8 3.8-7.9 9.8-11.2 13.4-3.3 3.5-9.8 9.3-14.5 12.8-4.7 3.5-13 8.6-18.5 11.3-5.5 2.7-14 6-19 7.5-5 1.4-13 3-18 3.6-5.1 0.7-14 0.9-20.5 0.5-6.3-0.3-15.3-1.4-20-2.5-4.7-1-12.8-3.3-18-5-5.2-1.7-15.4-6-22.5-9.5-7.1-3.5-17.7-9.6-23.5-13.4-5.8-3.9-14.1-10.1-18.5-13.9-4.4-3.7-11.8-10.4-16.4-14.8-4.6-4.4-12.5-12.7-17.5-18.5-5.1-5.8-12.2-14.4-15.9-19.2-3.7-4.9-7-8.8-7.3-8.8-0.3 0-2.2 1.7-4.1 3.8-2 2-6.8 7.7-10.7 12.7zm-148.6 58.3c0 0.4 1.4 7.2 3 15.2 1.6 8 3.7 20.6 4.6 28q1.6 13.5 1.7 39c0 19.5-0.4 28.1-1.7 36.5-1 6-3.3 16.9-5.1 24-1.8 7.1-5.4 18.2-8 24.5-2.5 6.3-7 15.5-9.8 20.5-2.8 5-7.8 12.3-10.9 16.3-3.2 3.9-8.6 9.9-12.1 13.2-3.4 3.3-8.9 8-12.2 10.5-3.3 2.5-10.9 7-17 10-6.1 3-14.4 6.4-18.5 7.5-4.1 1.1-12 2.7-17.5 3.5-5.5 0.8-11.9 1.5-14.3 1.5-2.3 0-4.4 0.5-4.7 1-0.3 0.5 3.7 3.6 8.7 6.7 5.1 3.2 13.8 8.1 19.3 11 5.5 2.8 14.7 7.2 20.5 9.6 5.8 2.4 18.1 6.9 27.5 10 9.4 3 24.2 7.1 33 9.1 8.8 1.9 22.1 4.5 29.5 5.6 9.6 1.5 20.6 2.3 38 2.7 15.2 0.3 29.8 0.1 38.5-0.6 7.7-0.7 18.5-1.9 24-2.7 5.5-0.8 15.3-2.8 21.7-4.4 6.5-1.7 17.3-4.8 24-7.1 6.8-2.2 18.6-7.1 26.3-10.8 7.7-3.7 17.9-9.3 22.7-12.4 4.9-3.1 8.7-6 8.5-6.3-0.1-0.3-4 0-8.7 0.5-4.7 0.6-14.8 1.1-22.5 1.1-8.1 0-17.8-0.6-23-1.5-5-0.9-12.4-2.5-16.5-3.6-4.1-1.2-11.3-3.9-16-6.1-4.7-2.2-11.6-6-15.5-8.6-3.9-2.6-10.1-7.6-13.9-11.2-3.8-3.6-9-9.2-11.6-12.5-2.6-3.3-6.8-9.6-9.3-14-2.6-4.4-6.2-11.8-8.1-16.5-1.9-4.7-4.5-13-5.9-18.5-1.4-5.5-3.1-14-3.8-19-0.7-5-1.3-17.1-1.2-27 0-13 0.6-21.6 2.1-31 1.2-7.1 3.2-17.7 4.6-23.5 1.3-5.8 4.1-15.7 6.1-22 2.1-6.3 6-17.4 8.7-24.5 2.6-7.1 4.8-13.8 4.8-14.7 0-1.4-1.3-2-5.3-2.7-2.8-0.6-9.7-1.7-15.2-2.5-5.5-0.9-13.6-2-18-2.6-4.4-0.5-14.5-1.4-22.5-2-8-0.5-16.8-0.9-19.5-0.9-2.8 0.1-6 0.3-7.3 0.5-1.2 0.2-2.2 0.7-2.2 1.2zm-53 5.3c-8 1.7-22.1 5.6-31.5 8.6-9.4 3.1-20.4 7.1-24.5 9-4.1 1.9-11.6 5.8-16.5 8.8-4.9 2.9-12.8 8.1-17.5 11.5-4.7 3.5-11.8 9.5-15.9 13.4-4 3.9-10 10.5-13.3 14.6-3.3 4.1-7.8 10.4-9.8 14-2.1 3.6-5.2 10-6.9 14.3-1.7 4.2-4 12.2-5.1 17.7-1.1 5.5-2 12.9-2 16.5 0 3.6 0.5 10 1.1 14.3 0.6 4.2 2.2 11.5 3.5 16.2 1.3 4.7 5.1 13.9 8.4 20.5 3.3 6.6 8.8 15.9 12.2 20.7 3.5 4.8 9.7 12.4 13.8 17 5.5 6 9.2 9.1 13.5 11.3l6 3c38.1 0 40.7-0.3 47.5-2.4 4.1-1.3 10.6-3.7 14.5-5.5 3.9-1.8 10.3-5.4 14.4-8.1 4.1-2.8 10.4-7.9 14.1-11.5 3.6-3.6 9.5-10.3 12.9-15 3.5-4.7 9-13.9 12.2-20.5 3.2-6.6 7.6-17.4 9.8-24 2.2-6.6 4.9-16.7 6.2-22.5 1.4-6.9 2.4-16.2 2.8-27 0.4-9.1 0.4-25.5 0-36.5-0.4-11-1.2-23.1-1.8-27-0.6-3.9-2.6-13.6-4.4-21.8l-3.2-14.7c-11.6 0.2-17.5 0.6-20.5 1.1-3 0.5-12 2.3-20 4zm150.2 20.4c-2.2 5-5.6 14-7.6 20-2.1 6-5 16-6.6 22-1.5 6-3.9 16.9-5.1 24-1.9 10.6-2.3 16.7-2.3 33 0 16.4 0.3 22.1 2.1 31.5 1.2 6.3 3.5 15.5 5.1 20.5 1.6 5 4.5 12.1 6.5 16 1.9 3.9 5.8 10.3 8.6 14.3 2.8 3.9 8.6 10.6 12.9 14.8 4.2 4.2 10.4 9.5 13.7 11.7 3.3 2.2 9.6 5.8 14 7.9 4.4 2.1 12.5 5 18 6.5 9.5 2.7 11.1 2.8 30.5 2.8 18.5-0.1 21.8-0.4 33.5-2.8 7.1-1.6 15.3-3.8 18-5.1 3.9-1.7 6.2-3.9 10.6-9.7 3.1-4.1 7-9.6 8.7-12.4 1.7-2.7 4.5-8.6 6.3-13 1.7-4.4 4-12 5-17 1.3-6.1 1.9-13.2 1.9-22 0-7.1-0.7-15.9-1.4-19.5-0.8-3.6-3.4-11.6-6-17.7-2.5-6.2-6.4-14.6-8.7-18.5-2.2-4-6.6-10.7-9.6-14.8-3.1-4.1-11.2-13.1-18.2-20-6.9-6.9-17.8-16.4-24.1-21.1-6.3-4.7-14.6-10.4-18.5-12.6-3.9-2.2-12.6-6.9-19.5-10.3-6.9-3.5-18.6-8.7-26-11.7-7.4-3-17.3-6.5-22-7.9-4.7-1.3-9.5-2.4-10.7-2.4-1.3 0-2.9 1-3.7 2.3-0.9 1.2-3.3 6.2-5.4 11.2zm2197.8-305.5h9.5l28.5 32.8c15.7 18 83.2 95.7 271.5 312.5l0.6-94.9c0.3-52.2 0.7-129.9 0.9-250.4h44v453h-10l-123.8-142.2c-68.1-78.3-135.1-155.2-173.7-199.5l-0.5 341.7h-47zm-1054.5-75.9l32.2-0.1c17.8 0 32.5 0.3 32.7 0.8 0.2 0.4-19.8 19.9-89.4 86.2h-20.5c-16.2 0-20.4-0.3-20.3-1.3 0.2-0.7 14.9-20.3 32.8-43.4zm762.9 74.8l11 0.6 105.3 226c57.9 124.3 105.3 226.1 105.3 226.2 0 0.2-10.9 0.2-48.3-0.2l-71.2-149.6-195 0.1-19.4 41.2c-10.7 22.7-26.7 56.5-51.6 108.9l-24.8-0.1c-13.6 0-24.7-0.4-24.7-0.8 0-0.4 48-102.3 106.7-226.5zm-72.1 259.2c-0.2 0.5 32.2 0.9 76.7 0.9 42.4 0 77-0.3 77-0.5 0-0.3-16.9-36.6-37.5-80.8-20.7-44.1-37.9-80.6-38.3-81-0.4-0.5-18 35.5-39.2 79.8-21.2 44.4-38.6 81.1-38.7 81.6zm-481-258.4l70.6 0.6c38.8 0.3 77.1 1.1 85.1 1.7 8 0.5 19.2 1.7 25 2.6 5.8 0.9 14.3 2.7 19 4 4.7 1.4 13 4.6 18.5 7.2 5.5 2.6 12.9 6.8 16.5 9.2 3.6 2.4 9.9 7.8 14 11.9 4.1 4.2 9.6 10.3 12.1 13.6 2.6 3.3 6.7 10 9.2 15 2.5 4.9 5.4 11.7 6.5 15 1.1 3.3 2.8 9.3 3.7 13.5 0.9 4.1 1.9 14 2.2 22 0.4 11.1 0.1 16.9-1.2 25-0.9 5.7-3.3 15.2-5.2 21-1.8 5.7-5 13.4-7 17-2 3.5-5.4 8.9-7.5 12-2.1 3-7.1 8.8-11.1 12.8-4 4-10.3 9.5-14.2 12.1-3.8 2.7-10.8 6.7-15.5 9.1-4.7 2.3-12.3 5.7-17 7.5-4.7 1.8-12.8 4.4-18 5.8-5.2 1.4-13.2 2.9-17.8 3.3-4.5 0.5-8.2 1-8.2 1.1 0 0.2 19.8 32.3 43.9 71.5 24.1 39.2 53.1 86.1 64.4 104.3 11.2 18.1 20.2 33.3 19.8 33.7-0.3 0.4-12.7 0.7-54.3 0.3l-129.7-210-59.1-0.5v211h-45zm44.7 197.8c30.6 1.1 50.8 1.5 64.5 1.5 13.8 0 30.9-0.5 38-1 7.2-0.6 17.1-1.7 22-2.5 5-0.9 11.9-2.5 15.5-3.7 3.6-1.1 9.7-3.7 13.5-5.7 4.8-2.5 9.7-6.3 15.6-12.1 7-6.9 9.4-10.2 12.8-17 2.3-4.7 5.1-12.1 6.2-16.5 1.4-5.6 2.1-11.4 2.1-19 0.1-6.1-0.5-13.7-1.2-17-0.7-3.3-3.5-10.8-6.2-16.5-4.4-9.4-5.9-11.5-14.1-19.6-7.4-7.3-10.9-10-17.7-13.3-5.8-2.9-12.3-5-20.5-6.8l-12-2.6-118.3-0.9zm-822.7-196l74.6 174.3c41 95.8 74.8 174.2 75.1 174.2 0.3 0 7.2-15.4 15.4-34.3 8.1-18.8 42.1-96.8 75.3-173.2 33.3-76.5 60.8-139.3 61.2-139.7 0.3-0.3 11.5-1 24.8-1.5 19.2-0.6 24.3-0.5 24.3 0.4 0 0.7-32.6 76.1-72.4 167.5-39.8 91.5-84 193-124.1 284.9l-9.6-0.6-97-226c-53.3-124.3-96.9-226.1-96.9-226.3 0-0.1 11.1-0.1 49.3 0.3zm426.7 28.5h259v41h-214v130h212v5.7c0 3.2 0.3 12.2 1.5 34.3h-213.5v163h213v41h-258z"/></svg>