<svg version="1.2" xmlns="http://www.w3.org/2000/svg" viewBox="0 0 2503 2503" width="2503" height="2503"><style></style><path fill-rule="evenodd" d="m2204.6 2395.3l-162.4-170v225.9h27.2v-160.9l161.6 169.2v-223.6h-26.4zm-786.2-159.3v127.6c0 44.5-17.4 67.2-52.9 67.2-34.7 0-51.3-22.7-51.3-67.2v-127.6h-27.2v136.7c0 24.1 6.8 43.8 21.1 58.9 14.4 16.6 34 24.1 57.4 24.1 25 0 44.6-7.5 58.9-24.1q20.5-22.7 20.5-58.9v-136.7zm109.5 24.9h52.1v190.3h25.7v-190.3h51.3v-24.9h-129.1zm-46.8 190.3h27.1v-215.3h-27.1zm-302.1-55.9l-64.2-159.3h-29.5l93.6 227.3 93.7-227.3h-29.5zm807.4-130.7c-22.7-21.9-49.1-33.2-79.3-33.2-31 0-57.4 11.3-80.1 33.2-21.9 21.9-33.2 48.4-33.2 79.3 0 31.7 11.3 58.2 33.2 80.1 21.9 21.1 48.4 31.7 80.1 31.7 31 0 58.1-10.6 79.3-31.7 21.9-21.9 33.2-48.4 33.2-80.1 0-30.9-11.3-57.4-33.2-79.3zm6 79.3c0 24.2-8.3 44.6-25.7 61.9-15.8 16.7-36.2 25-59.6 25q-35.2 0-61.2-25c-17.4-17.3-25.7-37.7-25.7-61.9 0-24.1 7.6-44.5 24.2-61.2 16.6-17.3 37.8-25.6 62.7-25.6 24.9 0 45.3 8.3 61.1 25.6 15.9 16.7 24.2 37 24.2 61.2zm-333.8-108v25h51.4v190.3h27.2v-190.3h50.6v-25zm-1102.7 28.7c-22.6-21.9-49.1-33.2-79.3-33.2-30.9 0-58.1 11.3-79.3 33.2q-34 32.9-34 79.3c0 31.7 11.4 58.2 34 80.1q31.8 31.7 79.3 31.7 47.6 0 79.3-31.7c22.7-21.9 33.3-48.4 33.3-80.1 0-30.9-10.6-57.4-33.3-79.3zm-17.4 18.1c15.9 16.7 23.5 37.1 23.5 61.2 0 24.2-8.4 44.6-25 61.9-16.6 16.7-37 25-60.4 25q-35.1 0-61.2-25c-15.8-17.3-24.9-37.7-24.9-61.9 0-24.1 8.3-44.5 24.2-61.2 16.6-17.3 37-25.6 61.9-25.6 24.9 0 46.1 8.3 61.9 25.6zm99.8 80.8v-127.6h-27.2v136.7c0 24.2 6.8 43.8 21.9 58.9 14.3 16.6 33.2 24.2 57.4 24.2 23.4 0 43-7.6 57.3-24.2 14.4-15.1 21.2-34.7 21.2-58.9v-136.7h-26.4v127.6c0 44.6-18.2 67.3-52.1 67.3-34.8 0-52.2-22.7-52.2-67.3zm-342.9-127.6h-26.4v215.3h92.2v-24.2h-65.8zm632.9 81.6c-21.1-7.6-30.9-17.4-30.9-30.3 0-9 3.7-16.6 11.3-22.6 6.8-5.3 15.9-7.5 24.9-7.5 15.1 0 26.5 6.7 34.8 19.6l21.1-12.1c-12.1-21.9-30.2-33.2-55.1-33.2-17.4 0-31.7 4.5-44.6 15.1-12.1 9.8-18.9 24.1-18.9 40.8 0 22.6 15.9 40.8 46.1 55.1l15.1 5.3c24.9 10.6 37 24.1 37 40.8 0 12-3.8 21.9-10.5 29.4-8.4 8.3-17.4 12.9-28.8 12.9-12 0-21.1-3.8-29.4-11.4-8.3-8.3-12.1-18.1-12.1-30.2l-27.2 6.1c2.3 17.3 9.8 31.7 21.9 43 12.9 12.1 28 17.4 45.3 17.4 18.9 0 34.8-6.1 47.6-18.9 13.6-12.9 20.4-28.7 20.4-48.3 0-28.8-17.4-49.9-53.6-64.2zm-123.1 133.7h27.2v-215.3h-27.2zm1060.5-2160.9l-520.9 1229.4-143.7-315.4 265.5-722.4c19.9-55.9 89.8-81.9 207.5-81.9l41.9-109.7h-618.7l-39.9 109.7c87.8 0 123.8 26 109.8 81.9l-131.7 367.2-259.5-558.8c-47.9-59.9-23.9-89.9 69.9-89.9v-129.7h-598.8v129.8c111.8 0 181.6 29.9 211.6 89.8l439.1 934-205.6 548.9c-4 73.8-119.7 109.8-343.3 109.8l-41.9 109.7h1708.4l237.5-504.9h-123.7c-115.8 261.4-249.5 395.2-399.2 395.2h-784.3l115.7-309.4 99.8 199.6h223.5l630.7-1482.9c29.9-89.8 107.8-137.7 229.5-137.7v-115.8h-514.9v115.8c155.7 0 199.6 47.9 135.7 137.7z"/></svg>