<svg clip-rule="evenodd" fill-rule="evenodd" height="1658" image-rendering="optimizeQuality" shape-rendering="geometricPrecision" text-rendering="geometricPrecision" viewBox="3.69 15.86 705.94 441.93" width="2500" xmlns="http://www.w3.org/2000/svg"><path d="m389.51 349.04c0-1.74.43-.17.91-2.56.7-3.46.18-6.25 2.56-7.84 1.21.88 1.31 1.55 1.46 3.49.41 5.4 1.27 3.22 1.5 12.86.09 3.69 2.65 15.83-1.48 15.83-2.86 0-4.95-1.3-4.95-3.47v-18.32zm-41.59 29.21c-3.73-.87-6.81-8.18-7.99-11.82l-.24-.75c-.04-.12-.09-.25-.13-.36-.82-2.34-1.05-3.01-1.05-5.88 0-.6 1.02-1.49 1.98-1.49 10.89 0 9.41-2.31 9.41 17.82 0 1.4-1.14 1.91-1.98 2.48zm9.41-10.4c0-12.25.99-9.9 9.9-9.9 3.8 0 1 4.95 1 4.96-.32 1.01-.37 1.59-.7 2.76-.52 1.83-1.07 3.07-1.88 4.55-7.45 13.56-8.32 6.96-8.32-2.37zm-21.49-.3c.67 1.78.98 1.78 1.68 3.27.59 1.25.8 2.23 1.5 3.45.57 1 1.38 1.99 1.95 3l4.11 5.79c.73.8 1.71 1.7 2.04 2.94.69 2.55-2.04 4.05-5.92.94l-11.49-9.8c-4.53-4.48-5.82-4.36-5.38-7.57 2.27-16.59-.67-18.49-.67-30.94 0-1.44 1.66-2.47 2.87-2.32 4.57.55 4.47 6.54 4.55 10.24.07 3.19.71 6.05 1.27 9.12.65 3.55 1.4 4.8 2.19 7.71.39 1.45.71 2.66 1.28 4.16zm24.95 21.09c.22-2.69 2.2-4.04 3.54-5.86l6.54-11.77c.68-1.43.61-2 1.17-3.28.61-1.41.98-1.36 1.56-2.9l3.46-14.86c.56-5.34-.23-12.32 5.51-12.32 3 0 .49 9.2.49 15.84 0 20.91 4.68 15.65-5.56 25.13l-11.97 9.83c-2.13 1.52-2.71 1.27-4.75.19zm-42.58-41.09c.14 3.14 2.16 23.27-2.97 23.27-4.43 0-4.95-1.69-4.95-5.45l1.53-14.81c1.32-6.26.05-11.93 3.42-11.93 1.59 0 1.03.37 1.53 1.44.77 1.66 1.36 5.76 1.44 7.47zm45.05-17.33c.13-5.84 9.18-7.01 11.88-2.97-.45 1.69-.18 1.2-1.52 1.94-.3.16-2.36.85-2.57.89-3.75.86-4.77.86-7.79.13zm-30.2-2.48c0-1.87 6.58-2.98 8.46-3.42 23.11-5.35 16.31 5.71 4.01 7.47-3.41.49-4.34.19-8-.12-2.66-.22-4.48-1.04-4.48-3.94zm48.02-7.92c4.18.97 7.34 3.41 10.41 5.93l.55.44c.08.07.2.15.27.22 2.04 1.74 1.64 1.33 1.64 4.79h-1.49c-2.64 0-3.38-.8-5.21-1.72-5.02-2.52-12.09-5.7-6.18-9.67zm-67.83 9.41c0-1.43 2.05-2.8 2.96-3.48l2.9-2.05c2.21-1.58 7.01-5.17 9.39-2.79 3.6 3.6-3.59 6.8-6.05 8.61l-.56.43c-4.05 2.93-8.64 2.93-8.64-.72zm6.44-16.34c-1.51 0-4.51 1.55-5.64 2.28-3.42 2.24-2.4 6.02-3.19 8.69-2.74 9.26.01 4.41-2 16.32-.35 2.1-.72 4.08-.97 5.96-.62 4.58-1.57 7.48-1.57 12.79 0 14.33-.75 9.35 6.86 18.89l14.04 13.68c2.9 2.48 12.89 9.82 16.48 11.74 1.7.91 6.44 4.73 11.23 5.08 2.23.16 7.43-2.26 9.1-3.56l.79-.69c.65-.49.76-.5 1.56-.91 3.5-1.79 2.97-2 5.09-3.33.83-.52 1.37-.68 1.93-1.04 1.72-1.14.41-.9 3.05-2.39 3.34-1.89 9.21-7.59 12.27-10l5.38-5.52c1.65-1.82 1.17-.41 2.67-2.77 4.26-6.68 6.09-2.57 6.09-15.69 0-9.07-1.19-9.28-1.46-12.4-.15-1.79-.18-2.85-.37-4.09-2.08-14.05-.7-7.05-1.13-15.69-.08-1.7-.36-2.59-.79-4.17-1.79-6.62-1.08-6.75-3.67-9.7-1.34-1.53-3.52-2.78-5.58-3.36-3.43-.97-4.15-.19-6.81.88-2.26.91-5.17.83-7.58 1.83-1.79.74-1.11.98-2.76 1.7-3.33 1.44-15.7.22-20.35.22-3.94 0-12.85 1.27-16.18.07-2.82-1.01-2.78-1.88-6.29-2.62-9.12-1.92-2.51-2.18-10.2-2.18zm34.16 22.21c5.3 0 9.59 4.29 9.59 9.59s-4.29 9.59-9.59 9.59-9.59-4.29-9.59-9.59 4.29-9.59 9.59-9.59zm-11.87-34.58c0-4.9 24.26-4.58 24.26.49 0 4.39-7.25 2.03-12.38 2.03-5.72 0-11.88 2.49-11.88-2.53zm28.71-2.48c-3.63 0-3.01-7.92 1.49-7.92 2.47 0 3.63 7.92-1.49 7.92zm-37.13-5.45c0-1.87 6.44-5.58 6.44 2.97 0 2.06-3.06 5.06-5.45.5-.4-.77-.99-2.28-.99-3.47zm8.42-5.94c0-1.76 1.69-1.94 3.47-1.98.98 2.71 1.49.37 1.49 2.48v4.46c0 3.65-4.95 6.25-4.95-4.95zm18.32-.99c0-1.42 1.92-2.79 3.05-2.86 3.51-.21 3.44 5.38 2.02 8.42-1.23 2.63-1.93 1.98-4.57 1.37-.79-3.38-.5-2.88-.5-6.93zm-11.39-.99c0-1.74 1.98-4.46 3.96-4.46 6.22 0 6.18 8.42.5 8.42-2.21 0-4.46-2.01-4.46-3.96zm23.27-1.49c0-.75.6-1.59.95-2.03.91-1.15.02-.75 1.78-1.18 2.47-.6 3.2.68 3.2 2.71 0 3.83-5.94 6.65-5.94.49zm-36.64 3.47c-6.98 0-6.96-6.93-3.47-6.93 5.04 0 4.23 3.63 3.47 6.93zm1.49-8.91c0-5.55 8.42-5.97 8.42-.5 0 7.11-8.42 5.26-8.42.5zm12.38-6.93c0-1.19 1.78-2.97 2.97-2.97 9.85 0 4.93 7.92 2.48 7.92-3.34 0-5.45-1.66-5.45-4.95zm6.44-7.92h-3.96c-.45.67-.66.81-1.04 1.43-4.5 7.31-3.47 3.18-11.42 5.91-6.49 2.23-12.75 9.72-10.88 18.46 1.14 5.32 4.87 10.34 8.44 14.34 2.15 2.41 1.7 3.21 4.49 3.43 5.94.47 14.13-.04 20.33-.03 3.31.01 6.08 1.28 8.3-.58 1.33-1.11 1.32-1.76 2.37-3.08.06-.08.16-.19.23-.27l4.07-5.34c2.75-3.35 4-6.49 3.86-11.53-.11-4.01-3.95-12.02-7.95-12.36-2.02 3.01-.42 3.64-1.88 5.55-1.07 1.39-3.55 1.61-5.3.66-1.6-.86-2.45-3.05-1.8-4.74.73-1.87 1.96-2.98 4.03-3.46v-1.49c-11.04-.92-7.69-3.73-10.98-6.35l-.59-.4c-.06-.04-.21-.12-.31-.19zm-278.33-206.42 8.19 9.13v66.83l-6.07 8.75 37.17.06-6.7-8.05-.7-24.07 35.84.19c10.86-3.58 22.03-11.2 22.56-26.62-.17-14.94-9.39-24.52-20.1-26.42zm30.56 4.27v42.94l27.49.19c6.26-4.99 11-8.81 10.81-20.79-.09-9.77-2.17-18.28-11.38-22.34h-26.93zm76.94-4.76 8.19 9.13v66.83l-6.07 8.75 37.16.06-6.7-8.05-.7-24.07h.15l38.4 32.39 31.86-.26-29.08-24.88h-24.28l-8.56-7.21 27.34.15c10.86-3.58 22.03-11.2 22.56-26.61-.17-14.94-9.39-24.52-20.1-26.42l-70.19.19zm30.56 4.27v42.94l27.49.19c6.26-4.99 11-8.81 10.81-20.79-.09-9.77-2.18-18.28-11.38-22.34h-26.93zm102.42-4.37h32.05l41.71 76.54c1.81 5.91 7.21 5.18 10.81 7.77h-40.39l6.07-1.88-.38-5.7-10.43-16.51-35.46.19-7.58 15.93c-.25 1.81-2.21 3.19-.76 5.44l2.84 2.72-17.44-.39 7.59-2.33 28.63-59.64v-4.08l-12.09-15.95-5.16-2.11zm6.22 54.97 14.73-27.57 15.33 27.42-30.06.16zm210.48-54.8h32.05l41.72 76.55c1.8 5.91 7.21 5.18 10.81 7.77h-40.39l6.07-1.88-.38-5.7-10.43-16.51-35.46.2-7.59 15.93c-.25 1.81-2.21 3.19-.76 5.44l2.84 2.72-17.45-.39 7.59-2.33 28.63-59.64v-4.08l-12.1-15.95-5.16-2.11zm6.22 54.97 14.73-27.57 15.33 27.42-30.06.16zm-127.27-55.94c13.5.07 52.39-1.75 62.91 2.01 37.51 13.43 37.92 64.6-.13 81.18-10.03 4.37-49.78 2.29-63.08 2.33l-.01-1.83c8.7-.65 9.4-1.63 9.42-6.74v-68.85c-.1-3.78-.86-6.13-9.26-6.39zm32.45 5.89-.06 74.49c7.53.03 14.06.72 17.75-1.14 19.66-8.87 18.7-66.94.22-72.31-3.19-1.17-9.55-1.22-17.91-1.05z" fill="#373435"/><path d="m288.86 243.41c-4.65-19.07-6.98-28.6-6.98-28.6 42.39-9.42 103.04-9.42 145.43 0 0 0-2.33 9.53-6.98 28.6-49.09-7.92-82.39-7.92-131.47 0zm-77.8-14.99c21.52 6.58 42.48 8.42 62.89 5.51 2.11 11.61 7.86 19.65 17.23 24.12-35.02 8.41-61.26.85-86.5-11.03 37.48 2.27 5.61-9.59 6.38-18.61zm287.08 0c-21.52 6.58-42.48 8.42-62.89 5.51-2.11 11.61-7.86 19.65-17.23 24.12 35.02 8.41 61.27.85 86.5-11.03-37.48 2.27-5.61-9.59-6.38-18.61zm-196.1 20.93h-7.23l7.23 6.9zm103.73 0h7.24l-7.24 6.9z" style="stroke:#373435;stroke-width:6.35;stroke-linecap:round;stroke-linejoin:round;stroke-miterlimit:22.926;fill:none"/><path d="m300.71 217.19 5.9-.55c1.33-.12 2.36-.12 3.07.02.96.19 1.82.61 2.55 1.25.74.64 1.33 1.46 1.77 2.45s.74 2.24.88 3.74c.12 1.32.07 2.47-.17 3.46-.29 1.2-.77 2.2-1.45 2.99-.51.6-1.23 1.1-2.15 1.49-.69.29-1.63.5-2.83.61l-6.08.57-1.5-16.03zm3.5 2.4 1 10.61 2.41-.23c.9-.08 1.54-.2 1.93-.34.51-.18.93-.44 1.24-.79.32-.35.55-.89.7-1.62.15-.74.17-1.73.05-2.97s-.31-2.18-.6-2.82c-.28-.64-.63-1.13-1.06-1.47-.43-.33-.95-.54-1.56-.61-.46-.06-1.35-.03-2.66.1zm28.67 11.47-3.51.19-1.59-3.58-6.45.35-1.14 3.73-3.44.19 5.36-16.42 3.44-.19 7.32 15.72zm-6.3-6.05-2.56-5.83-1.84 6.07zm8.13 6.11-.29-15.96 3.26-.06.24 13.24 8.07-.15.05 2.72-11.33.2zm32.92.5-3.08-.12.44-11.65a10.496 10.496 0 0 1 -4.07 2.19l.11-2.81c.82-.23 1.71-.7 2.68-1.4s1.65-1.53 2.04-2.5l2.5.1-.61 16.18zm5.07-3.47 3.01-.05c.01.61.16 1.08.44 1.4.27.32.66.51 1.16.55.63.06 1.19-.19 1.69-.73s.89-1.73 1.19-3.56c-.86.82-1.86 1.18-3.02 1.07-1.26-.12-2.3-.71-3.12-1.77s-1.16-2.37-1.01-3.93c.15-1.63.76-2.89 1.82-3.79 1.06-.91 2.34-1.29 3.83-1.15 1.62.15 2.9.91 3.82 2.26.92 1.36 1.25 3.48.98 6.37-.28 2.93-1.02 5-2.22 6.2s-2.68 1.72-4.42 1.55c-1.25-.12-2.23-.55-2.94-1.29s-1.11-1.79-1.2-3.15zm7.55-6.08c.09-.99-.06-1.78-.47-2.37-.4-.59-.9-.91-1.5-.97a1.77 1.77 0 0 0 -1.47.54c-.42.41-.67 1.13-.77 2.14-.1 1.03.04 1.81.4 2.33s.85.81 1.46.87c.59.06 1.11-.13 1.55-.56.45-.43.71-1.09.8-1.99zm12.28 11.86-3.06-.37 1.41-11.57c-1.24.91-2.66 1.53-4.24 1.85l.34-2.79c.83-.16 1.76-.55 2.78-1.17 1.03-.61 1.77-1.39 2.24-2.32l2.48.3-1.96 16.07zm5.04-3.63 3.01.03c-.01.77.17 1.38.53 1.84.36.45.83.72 1.41.8.63.08 1.19-.09 1.68-.51s.79-1.04.9-1.86c.1-.77-.02-1.41-.38-1.91-.35-.5-.83-.8-1.42-.87-.39-.05-.87-.03-1.43.05l.66-2.44c.82.13 1.47.03 1.96-.3.48-.32.77-.8.85-1.44.07-.54-.03-.99-.31-1.35s-.68-.58-1.21-.65c-.52-.07-.99.06-1.41.37-.42.32-.71.82-.88 1.51l-2.75-.85c.32-.95.72-1.69 1.19-2.22s1.08-.91 1.83-1.16c.75-.24 1.57-.3 2.44-.19 1.5.2 2.64.83 3.42 1.91.64.89.9 1.83.77 2.82-.18 1.4-1.1 2.43-2.74 3.07.89.32 1.56.85 2.02 1.61s.62 1.62.5 2.58c-.18 1.4-.85 2.53-2 3.39s-2.49 1.18-4.01.98c-1.44-.19-2.58-.76-3.42-1.72s-1.25-2.12-1.23-3.49z" fill="#373435" fill-rule="nonzero"/><path d="m249.76 190.46v-29.35h11.18l6.6 20.02 6.53-20.02h11.2v29.35h-6.9l-.03-23.11-7.27 23.11h-7.17l-7.23-23.11-.03 23.11h-6.9zm161.5-14.5c0-2.99.57-5.51 1.69-7.54.83-1.5 1.98-2.84 3.43-4.03s3.04-2.07 4.76-2.65c2.3-.77 4.95-1.16 7.95-1.16 5.44 0 9.78 1.35 13.05 4.03 3.26 2.69 4.89 6.43 4.89 11.22 0 4.75-1.62 8.46-4.86 11.14-3.23 2.69-7.57 4.02-12.98 4.02-5.48 0-9.85-1.33-13.08-4-3.23-2.66-4.86-6.34-4.86-11.03zm7.67-.2c0 3.33.97 5.85 2.9 7.57 1.93 1.71 4.38 2.58 7.35 2.58 2.98 0 5.41-.85 7.33-2.56 1.9-1.71 2.86-4.26 2.86-7.67 0-3.37-.93-5.88-2.79-7.54-1.85-1.66-4.31-2.49-7.39-2.49-3.07 0-5.55.84-7.43 2.51-1.88 1.68-2.82 4.21-2.82 7.59zm-43.29 14.7v-29.35h7.22l15.17 19.67v-19.67h6.9v29.35h-7.45l-14.93-19.29v19.29h-6.9zm-3.97 0h-8.04l-3.18-6.68h-14.78l-3.06 6.68h-7.89l14.31-29.35h7.88zm-13.64-11.64-5.12-10.86-4.98 10.86zm-50.79 11.64v-29.1h7.46v24.14h18.48v4.96zm-14.76 0v-29.35h7.46v29.35z" fill="#373435"/><path d="m355.64 455.69c-29.18 2.1-56.79-12.95-75.32-34.92-34.3-40.66-69.63-80.44-104.99-120.18-47.12-52.97-94.69-105.53-142.13-158.2-29.51-32.76-19.12-85.76 14.39-111.48 12.71-9.76 27.95-15.05 44-15.05h528.11c52.85 0 89.93 58.41 70.73 106.62-2.91 7.31-7.07 14.06-12.34 19.91-47.45 52.67-95.01 105.24-142.13 158.2-35.36 39.74-70.69 79.52-104.99 120.18-18.53 21.97-46.14 37.02-75.32 34.92z" style="stroke:#373435;stroke-width:31.73;stroke-linecap:round;stroke-linejoin:round;stroke-miterlimit:22.926;fill:none"/></svg>